<?xml version="1.0" encoding="UTF-8"?>
<svg id="Layer_1" xmlns="http://www.w3.org/2000/svg" version="1.1" viewBox="0 0 1024 1024">
  <!-- Generator: Adobe Illustrator 29.1.0, SVG Export Plug-In . SVG Version: 2.1.0 Build 142)  -->
  <defs>
    <style>
      .st0 {
        fill: #fff;
      }
    </style>
  </defs>
  <path class="st0" d="M1019-26V998H-5V-26H1019ZM852.1,259.4c4.7,11.6,20.6,12.8,26.4,1.2s-.5-29.7-1-43.6c8-12.2,18.7-21.1,30.5-29.4,7.1-5,17.9-6.8,16.2-17.8-2-12.4-16.1-5.6-22.6-1.9-11.9,6.8-24.1,17.3-32.8,27.9-9.8-16.8-29.9-15.7-42.2-2.4s-.8,26.5,11.2,21.6,3.3-10.7,10.2-11.6c14.8,9.6-.4,22.9.4,36-9.8-.6-14,9.6-20.3,15.2-10.3,9.2-26.6,17.6-40.3,10.9,17.2-9.5,44.6-37.4,28.4-57.8-3.8-4.7-12.6-8.5-18.5-9-21.9-1.7-35.1,24.5-36.5,43.1-.5,7.5,3.4,16.8-2.4,21.3-3.8-11.1,1-52.4-19.5-46-2.2.7-4.9,3.7-5.4,5.9-1.4,6.1,3.1,22.5,3.6,30.2s-.4,18.1,0,27c-1.6.4-1.9-.7-2.8-1.4-16.5-12.6-18.4-24.8-28.6-39.7-8.8-12.9-25.3-4.7-19.7,9.2,1.3,3.1,4,4.4,5.4,6.9,6.1,10.3,10.3,21.1,20,29.4l-6.3,8.7c-3.3,0-6.5,1.8-9.8.8s-12.4-12.1-13.9-15.5c-3-6.8-4.2-19.3-11.7-23.4s-13.6-4.3-15.6-4.4c-20.6-.8-34,29.9-35.5,47-.8,8.8.8,17.5,1.4,26-11.6,14.3-27.2,25.6-46.5,24.7s-18.2-2-19.4-9.5c7.4,4.7,18.8-1.2,25.6-5.2,15.5-9.1,33.6-31,25.2-49.8-5-11.2-21.2-17.4-32.8-15.6-20.3,3.1-29.7,28-37.4,44.1-4.8-8.6-19.7-24.1-29.4-13.3-8.7,9.7,5.8,15.4,10.8,21.5,10.6,13.2,10.1,33.4,1.6,47.7-4.2,7-5.8,5.3-10.5,0-13.8-15.5-17.5-32.6-27-48.9-5.8-10-18.9-9.7-21.4,1.4-2.2,9.5-.3,28.3-1.4,39.4s-2.9,24.6-5.2,25.1c-2-.2-3.3-1.5-4.7-2.9-5-5.5-10.2-24.4-11.6-32s.8-23.8-12-22.9c-9.3.7-10.6,8.6-9.8,16.3,1.7,16.4,8.9,36,16.6,50.4-2.3,5.9-8.5,8.1-13,11.6s-2.4,3.7-4.3,5.1c-8.8,6.3-26.7,6.9-34.5-1.5l.5-2.4c11.7-7.2,21.4-17.3,26.4-30.3s8.5-37.5-11.3-38c-21.3-.6-36.4,33.2-39.3,50.9-.9,5.3,1.5,9-4.4,12.7-5.6-7.6-5-18-10.5-25.5s-16.8-10.4-23.7-9.6c-17.4,2.1-40,45.2-40.3,61.2,0,3.4,3,9.7,2.7,11.2-.6,3-4.9,4.2-7.7,2.5-4.7-2.9-10.3-38.1-14.7-46.2s-5.2-5.5-8.5-5.8-4.3,1.6-6.5,1.7-4.2-1.2-8-.5c-12.6,2.5-23.4,27.4-26.7,38.7s-2,6.6-1.7,10.2c-1.2.3-1.1-1-1.4-1.9-2.2-7.1-2.3-11.8-7.3-18.3-11.8-15.4-41.7-15.1-57.7-6.8-5.7,2.9-20.3,13-21.6,19.2s1.3,7.4,2.6,12.2c15.2,56.8,27.2,114.5,47.3,169.8,3.1,8.5,16.3,8.5,18.7-.6s-3.3-18.1-5-23.5c-2.5-7.8-6-15.2-8.3-23-5.8-19.2-9.7-39-15.7-58.2,12.6-5.7,23-14.9,31-26.1,6.7,3.7,12.7,5.8,20.3,3.2s6.4-4.1,8.1-4.2,5.8,1.8,8.5,1.9c15.2.7,25.3-16.5,32.2-27.5,8.2,7.8,24.4,9.2,33.2,1.9,2.9-2.5,4-6.7,7.1-9l15.1-3.3-29.3,43.3c-18.6,36,21.4,74.5,57.4,54.6,30.3-16.8,23.8-63.3,21.2-92.6s-4.6-27-3.3-29.9,1.3-1.4,2-1.9c8.8,8,16.8,14.8,29.3,16.1,20.9,2,35-6.4,49.3-19.9s8.4-9.7,9-10c1.1-.5,6.2.7,9.5,0,17.2-3.5,18.2-31.2,19.9-45.1l14.2,20.4c18.5,21.6,36.1,14.6,46.6-9.3,1-2.2,3.7-12.7,5.1-13,29.9,20.1,70.3,7,90.2-20.9,24.4,10.9,39.8-9.1,45.9-30.3,14.9,11.6,38.2,9.7,46.5-8.5h1.4c6.3,7.8,19.3,9.9,25,.3s3.1-12.2,4.2-13.4,12.7-3.9,14.5-7.6c20.7,17.8,51.3,8.1,69.7-8.2,3.4-3.1,6-6.9,9.1-9.9s.8-1.4,2.3-1Z"/>
  <path d="M852.1,259.4c-1.5-.4-1.5.2-2.3,1-3,3-5.6,6.9-9.1,9.9-18.4,16.3-49,26-69.7,8.2-1.7,3.8-13.4,6.4-14.5,7.6s-2.3,10.2-4.2,13.4c-5.7,9.5-18.8,7.5-25-.3h-1.4c-8.3,18.2-31.5,20.1-46.5,8.5-6,21.1-21.5,41.2-45.9,30.3-19.9,27.9-60.3,41-90.2,20.9-1.4.3-4.1,10.8-5.1,13-10.5,23.8-28.1,30.9-46.6,9.3l-14.2-20.4c-1.6,13.8-2.7,41.6-19.9,45.1s-8.4-.5-9.5,0-7.2,8.3-9,10c-14.3,13.5-28.4,21.9-49.3,19.9-12.5-1.2-20.5-8-29.3-16.1-.7.5-1.6,1.1-2,1.9-1.4,2.9,2.8,24.5,3.3,29.9,2.7,29.3,9.1,75.8-21.2,92.6-36,20-76-18.5-57.4-54.6l29.3-43.3-15.1,3.3c-3.2,2.3-4.2,6.5-7.1,9-8.8,7.4-25,5.9-33.2-1.9-6.9,11-17,28.2-32.2,27.5-2.8-.1-6.2-2.1-8.5-1.9s-5.6,3.4-8.1,4.2c-7.6,2.5-13.5.4-20.3-3.2-8,11.2-18.4,20.4-31,26.1,6,19.2,9.9,39,15.7,58.2s5.9,15.2,8.3,23,6.2,18.8,5,23.5c-2.4,9.1-15.5,9.1-18.7.6-20.1-55.4-32.1-113-47.3-169.8-1.3-4.7-4.1-5.1-2.6-12.2s15.9-16.3,21.6-19.2c16-8.2,45.9-8.6,57.7,6.8,5,6.5,5.1,11.2,7.3,18.3s.2,2.2,1.4,1.9c-.3-3.6.7-6.9,1.7-10.2,3.4-11.3,14.1-36.2,26.7-38.7,3.9-.8,5.3.6,8,.5s3.9-1.9,6.5-1.7,6.9,2.9,8.5,5.8c4.4,8.1,10,43.3,14.7,46.2s7.1.5,7.7-2.5-2.7-7.8-2.7-11.2c.3-16,22.9-59.1,40.3-61.2s19.7,4.1,23.7,9.6,4.9,18,10.5,25.5c5.9-3.7,3.5-7.4,4.4-12.7,2.8-17.7,17.9-51.5,39.3-50.9,19.8.5,16.3,25.1,11.3,38s-14.7,23.1-26.4,30.3l-.5,2.4c7.9,8.5,25.7,7.8,34.5,1.5,2-1.4,2.8-3.9,4.3-5.1,4.5-3.6,10.7-5.7,13-11.6-7.8-14.4-14.9-34-16.6-50.4s.5-15.6,9.8-16.3c12.8-.9,10.5,14.3,12,22.9s6.6,26.6,11.6,32,2.6,2.7,4.7,2.9c2.4-.5,4.9-21.8,5.2-25.1,1-11.1-.8-30,1.4-39.4,2.6-11.1,15.6-11.4,21.4-1.4,9.5,16.2,13.2,33.4,27,48.9s6.3,7.1,10.5,0c8.5-14.3,9-34.5-1.6-47.7-4.9-6.1-19.5-11.9-10.8-21.5,9.7-10.8,24.6,4.7,29.4,13.3,7.7-16.2,17.1-41,37.4-44.1,11.6-1.8,27.8,4.4,32.8,15.6,8.4,18.9-9.6,40.7-25.2,49.8-6.8,4-18.2,9.9-25.6,5.2,1.2,7.5,13.1,9.2,19.4,9.5,19.3.9,34.9-10.4,46.5-24.7-.7-8.5-2.2-17.2-1.4-26,1.5-17.1,14.9-47.8,35.5-47,2,0,13.9,3.4,15.6,4.4,7.5,4.1,8.7,16.6,11.7,23.4s10.6,14.4,13.9,15.5,6.5-.8,9.8-.8l6.3-8.7c-9.7-8.3-13.9-19.1-20-29.4s-4.2-3.8-5.4-6.9c-5.6-14,10.8-22.2,19.7-9.2,10.2,14.9,12.1,27,28.6,39.7,1,.7,1.2,1.8,2.8,1.4-.4-8.9.5-18.1,0-27s-5-24.1-3.6-30.2,3.2-5.3,5.4-5.9c20.5-6.4,15.7,35,19.5,46,5.8-4.5,1.8-13.9,2.4-21.3,1.4-18.7,14.6-44.9,36.5-43.1,5.9.5,14.7,4.2,18.5,9,16.2,20.4-11.3,48.4-28.4,57.8,13.7,6.7,30-1.6,40.3-10.9,6.3-5.7,10.5-15.9,20.3-15.2-.8-13.1,14.4-26.4-.4-36-7,.9-4.1,9.1-10.2,11.6-12,4.9-21-11-11.2-21.6s32.5-14.4,42.2,2.4c8.7-10.6,20.9-21.1,32.8-27.9s20.7-10.5,22.6,1.9c1.7,11-9.1,12.9-16.2,17.8-11.8,8.3-22.5,17.2-30.5,29.4.5,13.9,7.8,30,1,43.6s-21.7,10.3-26.4-1.2ZM781,246.1c5.7-3.8,18.8-15.8,19.7-22.5.6-4.1-2.9-5.4-6.5-4.6-8.1,1.9-13.4,19.5-13.3,27.1ZM652.5,271.8c-11.6,6-19.3,39.6-9.5,47.3,10,7.9,18.6-17.1,19.3-24.3,1.1-10.1-3.4-16-9.8-23ZM554.4,322c10.5,1.3,38.2-19.7,31.8-30.3s-11-4-14.8-1.5c-7.9,5.5-15.3,22.5-17,31.8ZM378.1,382.7c5.5-4,9.4-11.2,10.4-18-5.3,4.6-8.5,11.5-10.4,18ZM316.4,392.1l-2,.6c-4.7,7.3-10.1,14.3-13.4,22.5s-5.6,13-2.1,13.8c6.2-.5,10.5-3.4,14.6-7.9s13.7-20.4,11.3-23.2c-3.7-.4-7.7-1.6-8.5-5.8ZM240.6,412c-3.2-.7-4.4,2.6-5.8,5.1-8,13.2-13,30.8-10.3,46.1,2.4,2.1,8.8-6,9.9-7.6,8.5-12.7,11.8-29,6.2-43.6ZM151.5,489.8c15.9-8.6,35.1-32.8,32.2-51.6s-24.8-11.7-33.5-8-5,5.1-6.5,11.6-2.9,3.3-2.6,5.8l10.4,42.3ZM341.1,444.3c-9.5,11.2-19,22.6-27.3,34.8s-24.8,31.5-5.8,46.2c12.5,9.7,29.3,1.4,33.8-12.5,3.3-10.3,1.5-17.3,1.2-27.2-.4-13.8-.8-27.5-1.9-41.2Z"/>
  <path class="st0" d="M341.1,444.3c1.2,13.8,1.5,27.5,1.9,41.2.3,10,2.1,16.9-1.2,27.2-4.4,13.9-21.2,22.2-33.8,12.5-19-14.7-4.3-31.5,5.8-46.2s17.8-23.5,27.3-34.8Z"/>
  <path class="st0" d="M151.5,489.8l-10.4-42.3c-.3-2.4,2.2-3.7,2.6-5.8,1.5-6.5-2.1-7.9,6.5-11.6s31.6-4.4,33.5,8c2.9,18.8-16.3,43-32.2,51.6Z"/>
  <path class="st0" d="M652.5,271.8c6.4,7,11,12.9,9.8,23-.8,7.2-9.4,32.2-19.3,24.3-9.8-7.7-2.1-41.3,9.5-47.3Z"/>
  <path class="st0" d="M240.6,412c5.5,14.5,2.3,30.9-6.2,43.6-1.1,1.7-7.5,9.7-9.9,7.6-2.8-15.4,2.3-32.9,10.3-46.1s2.6-5.7,5.8-5.1Z"/>
  <path class="st0" d="M554.4,322c1.7-9.3,9.1-26.3,17-31.8,3.7-2.6,12.6-2.2,14.8,1.5,6.4,10.7-21.2,31.6-31.8,30.3Z"/>
  <path class="st0" d="M316.4,392.1c.8,4.2,4.8,5.3,8.5,5.8,2.4,2.8-8.6,20.3-11.3,23.2-4.1,4.5-8.4,7.4-14.6,7.9-3.5-.8,1.2-11.5,2.1-13.8,3.3-8.1,8.6-15.2,13.4-22.5l2-.6Z"/>
  <path class="st0" d="M781,246.1c-.1-7.6,5.2-25.2,13.3-27.1s7,.5,6.5,4.6c-.9,6.7-14,18.8-19.7,22.5Z"/>
  <path class="st0" d="M378.1,382.7c1.9-6.5,5.2-13.5,10.4-18-1,6.8-4.9,14-10.4,18Z"/>
</svg>